<?xml version='1.0' encoding='UTF-8'?>
<svg x="0px" y="0px" viewBox="0 0 32 32" version="1.1" xmlns="http://www.w3.org/2000/svg" xmlns:xlink="http://www.w3.org/1999/xlink" xml:space="preserve" id="Layer_1" style="enable-background:new 0 0 32 32">
  <style type="text/css">
	.Black{fill:#727272;}
</style>
  <rect x="2" y="26" width="26" height="2" class="Black" />
  <polygon points="22,4 22,6 24,6 21,19.5 18,6 20,6 20,4 12,4 12,6 14,6 11,19.5 8,6 10,6 10,4 2,4 2,6 4,6 8,24   10,24 12,24 15,10.5 18,24 20,24 22,24 26,6 28,6 28,4 " class="Black" />
</svg>